<?xml version="1.0" encoding="UTF-8"?>
<svg xmlns="http://www.w3.org/2000/svg" viewBox="0 0 611.7 1682.18">
  <defs>
    <style>
      .cls-1 {
        fill: #d55751;
      }

      .cls-2 {
        fill: #8a8474;
        mix-blend-mode: screen;
        opacity: .3;
      }

      .cls-3 {
        stroke: #5a5b5c;
        stroke-linecap: round;
        stroke-linejoin: round;
      }

      .cls-3, .cls-4 {
        fill: none;
      }

      .cls-4 {
        stroke: #1d1d1b;
        stroke-width: 4px;
      }

      .cls-4, .cls-5 {
        stroke-miterlimit: 10;
      }

      .cls-6 {
        fill: #f6b4bd;
      }

      .cls-7 {
        fill: #eaba94;
      }

      .cls-8 {
        isolation: isolate;
      }

      .cls-9 {
        fill: #e2a064;
      }

      .cls-10 {
        fill: #1f2025;
      }

      .cls-11 {
        fill: #1c2023;
      }

      .cls-12 {
        fill: #f6f3f1;
      }

      .cls-12, .cls-13 {
        mix-blend-mode: multiply;
      }

      .cls-14, .cls-5 {
        fill: #7159a2;
      }

      .cls-15 {
        fill: #e2a451;
      }

      .cls-16 {
        fill: #b8c0c6;
      }

      .cls-17 {
        fill: #fcdccb;
      }

      .cls-5 {
        stroke: #cc9e4b;
      }

      .cls-13 {
        fill: #f5f1f4;
      }

      .cls-18 {
        fill: #ededed;
      }
    </style>
  </defs>
  <g class="cls-8">
    <g id="Capa_1" data-name="Capa 1">
      <g>
        <path class="cls-17" d="M140.32,627.34s-1.97,25.06-4.92,62.66c-2.96,37.42-7.07,86.72-14.65,135.09-1,6.03-1.99,12.07-2.98,18.07-1.13,5.97-2.26,11.91-3.38,17.81-1.07,5.93-2.34,11.73-3.66,17.44-1.32,5.72-2.46,11.43-3.87,16.94-2.89,11-5.46,21.75-8.61,31.68-1.51,5-2.97,9.85-4.38,14.56-1.59,4.63-3.12,9.12-4.6,13.42-2.81,8.68-5.97,16.38-8.65,23.27-1.35,3.45-2.61,6.67-3.78,9.65-1.3,2.92-2.49,5.6-3.57,8.02-4.31,9.72-6.77,15.27-6.77,15.27l-.39,.86c-4.24,9.56,.07,20.74,9.63,24.99,9.03,4,19.53,.32,24.25-8.14,0,0,3.14-5.68,8.65-15.62,1.38-2.49,2.9-5.25,4.56-8.25,1.52-3.07,3.17-6.39,4.93-9.93,3.51-7.1,7.61-15.08,11.41-24.04,1.98-4.46,4.04-9.11,6.17-13.91,1.95-4.88,3.97-9.92,6.04-15.1,4.3-10.34,8.03-21.47,12.13-32.95,2.01-5.75,3.76-11.65,5.69-17.61,1.93-5.95,3.82-12,5.49-18.14,1.73-6.13,3.47-12.31,5.22-18.51,1.59-6.23,3.2-12.48,4.8-18.73,12.4-50.11,21.06-100.53,27.31-137.85,6.22-37.17,10.36-61.97,10.36-61.97l.02-.09c3.33-19.9-10.11-38.72-30-42.05-19.89-3.33-38.72,10.1-42.05,30-.17,1.04-.3,2.14-.39,3.16Z"/>
        <path class="cls-11" d="M566.69,491.88c-6.18-25.63-13.59-49.93-29.43-71.47-8.71-11.86-23.66-22.49-29.8-36.29-6.15-13.81-2.54-27.07-1.49-41.83,3.05-42.72,7.42-94.65-8.9-135.24-8.78-21.87-16.46-51.72-28.05-72.18-10.95-19.31-29.37-14.21-53.25-9.07-29.44,6.34-57.62,10.34-83.16,25.31-73.02,42.79-148.36,66.62-201.69,131.87-31.32,38.33-25.68,118.05-22.23,168.45,2.08,30.29,14.49,57.7,26.66,85.04,10.76,24.2,12.35,57.11,29.15,77.67,26.09,31.96,54.94,60.92,88.35,85.22,33.1,24.08,67.93,50.11,109.08,57.77,18.69,3.48,28.2-13.97,45.78-17.69,35.97-7.61,86.9-2.55,113.59-33.23-20.73-8.91-23.27-41.76-22.65-55.36,7.39,12.22,16.47,27.66,19.28,41.66,8.92-5.79,20.47-24.46,21.79-26.72,25.75-43.88,14.48-91.3,12.29-94.06,3.24,4.08,8.3,11.41,13.64,24.67,9.02-26.49,7.45-77.92,1.04-104.55Zm-10.6-11.43c-7.48-21.58-13.42-35.41-33-68.59,0,0,39,31.48,47.93,129.43,0,0-7.95-40.72-14.93-60.84Z"/>
        <path class="cls-13" d="M472.82,699.08c-1.69-11.29-2.93-22.62-3-34.06-.08-14.05,3.14-30.5-1.76-43.98-9.78-26.95-21.53-62.33-43.44-82.28-19.26-17.55-40.84-18.38-64.5-25.1-30.6-8.68-59.36-43.8-26.26-65.68,15.54-14.45,29.33-27.19,43.93-42.98-13.14,9.24-28.46,18.25-43.91,16.82-1.92,.58-3.83,1.16-5.92,1.63-18.31,4.03-37.04,7.76-55.51,10.91-14.68,2.5-28.56,.11-43.04,1.62-14.74,1.54-6.36,28.32-9.61,37.2-4.2,11.46-8.35,25.03-16.97,34.01-17.14,17.85-43.82,26.55-68.4,27.21,.31,.7,.62,1.4,.93,2.1,10.76,24.2,12.35,57.11,29.15,77.67,26.09,31.96,54.94,60.92,88.35,85.22,33.1,24.08,67.93,50.11,109.08,57.77,18.69,3.48,28.2-13.97,45.78-17.69,21.76-4.6,48.99-4.61,73.02-10.66-3.58-9.61-6.36-19.51-7.9-29.73Z"/>
        <g>
          <path class="cls-16" d="M1.25,1616.8c-6.91,14.37,15.41,29.05,50.4,44.44,41.49,18.24,63.28,33.76,79.1,5.1,11.39-20.63-.32-26.42-14.8-32.79-12.21-5.39-18.69-12.28-41.68-15.62-35.39-6.52-63.64-20.64-73.02-1.13Z"/>
          <path class="cls-15" d="M5.67,1613.4c-5.06,12.97,15.77,24.97,50.32,39.9,40.94,17.69,62.41,32.87,78.35,4.31,11.47-20.53-1.12-24.19-14.37-32.34-11.32-6.98-18.43-11.99-41.17-15.1-35.02-6.13-68.77-7.94-73.13,3.22Z"/>
        </g>
        <g>
          <path class="cls-16" d="M494.92,1610.82c9.47,12.18,31.82-.81,60.23-24.48,33.7-28.07,56.54-40.25,38.54-66.33-12.96-18.77-23.03-11.11-34.8-1.32-9.93,8.26-18.7,10.9-31.5,29.37-20.92,27.84-45.34,46.22-32.48,62.77Z"/>
          <path class="cls-15" d="M493.88,1605.53c9.06,9.98,28.43-2.89,56.27-26.37,32.98-27.84,55.39-39.88,37.53-66.02-12.83-18.8-21.44-9.46-34.22-1.5-10.92,6.79-18.32,10.79-30.84,29.15-20.41,27.68-36.54,56.15-28.75,64.74Z"/>
        </g>
        <path class="cls-17" d="M361.1,921.56s-.61,2.72-1.76,7.82c-.33,1.58-.72,3.52-1.19,5.81-.5,3-1.14,6.31-1.7,10.42-2.42,16.06-4.99,41.48-6.76,74-.44,8.27-.9,16.88-1.39,25.8-.25,4.69-.51,9.46-.78,14.31-.42,4.7-.85,9.47-1.28,14.31-1,10.37-2.1,20.48-3.31,30.69-1.2,9.92-2.42,20.06-3.65,30.37-2.48,20.03-4.44,38.52-4.66,56.94-.14,4.65-.05,9.3,.05,14.01l.12,3.54,.06,1.78,.03,.89,.02,.44c-.11-.59,.24,1.63-.24-1.27l.03,.26,.25,2.06c.04,.29,0,.11-.02-.03l-.08-.36-.2-.71c-.21-.66-.18-.45-.24-.53-.06-.03-.12-.06-.14-.03-.73,.14,1,5.07,5.12,10.71,4.08,5.74,10.02,12.35,16.75,18.99,6.72,6.67,14.26,13.52,22.11,20.37,15.77,13.74,32.8,27.56,49.56,42.35,8.39,7.41,16.75,15.08,24.93,23.34,4.09,4.14,8.13,8.42,12.1,12.92,4.35,4.89,6.87,8.36,9.95,12.19,12.1,15.21,23.45,32.85,33.42,47.07,16.77,23.49,32.38,45.38,45.61,71.05,5.16,10.02,10.79,18.74,16.7,28.37,8.7,11.89-3.82,19.67-16.18,27.85-8.64,5.73-17.04,2.91-24.59-4.75-11.58-11.73-22.18-22.92-33.78-34.66-14.2-14.35-32.2-25.88-46.69-39.95-5.87-5.62-11.97-11.44-18.41-17.42-6.3-6.05-13-12.27-19.96-18.75-7.79-7.25-12.28-11.44-19.28-16.95-6.69-5.31-14.21-10.75-22.23-16.3-16.07-11.13-34.14-22.57-53.21-35.57-9.54-6.54-19.38-13.44-29.43-21.34-10.03-7.94-20.33-16.73-30.73-27.97-5.2-5.69-10.43-11.96-15.47-19.48-4.99-7.48-9.87-16.23-13.66-26.74-.48-1.29-.93-2.65-1.35-4.01-.44-1.42-.82-2.53-1.33-4.56l-1.71-7.18-.05-.25c-.52-3.08-.18-1.02-.31-1.79l-.14-.59-.24-1.16-.51-2.34-1.01-4.68c-1.27-6.25-2.49-12.56-3.46-18.86-4.07-25.35-5.26-50.18-6.11-71.93-.33-10.59-.65-20.99-.96-31.18-.29-9.89-.68-19.47-1.13-28.26-.21-4.74-.42-9.42-.63-14.03-.12-4.47-.23-8.86-.34-13.19-.21-9.13-.41-17.93-.61-26.4-.69-34.41-.4-64.73,1.55-87.48,.4-5.61,1.01-10.91,1.48-15.44,.61-4.97,1.32-9.82,1.8-13.21,.83-5.16,1.28-7.92,1.28-7.92,6.56-41.12,45.22-69.16,86.35-62.59,41.13,6.56,69.16,45.22,62.61,86.35-.25,1.52-.54,3.02-.87,4.5l-.07,.32Z"/>
        <path class="cls-10" d="M557.82,1466.96c-8.95,5.92-36.52,46.86-44.34,38.95-11.99-12.12-1.19-3.02-13.21-15.15-14.7-14.84-33.35-26.75-48.36-41.29-6.08-5.81-12.39-11.82-19.06-18-6.52-6.26-13.46-12.68-20.67-19.38-8.06-7.5-12.72-11.83-19.97-17.52-6.93-5.49-14.71-11.11-23.02-16.85-16.65-11.51-35.36-23.33-55.11-36.76-9.88-6.76-20.07-13.89-30.48-22.06-10.38-8.21-21.06-17.29-31.83-28.91-5.39-5.88-10.8-12.36-16.02-20.13-5.17-7.73-10.22-16.78-14.15-27.64-.49-1.33-.96-2.73-1.4-4.15-.45-1.47-.85-2.62-1.37-4.71l-1.77-7.43-.06-.26c-.54-3.18-.19-1.06-.32-1.85l-.14-.61-.25-1.2-.53-2.42-1.04-4.84c-1.32-6.46-2.58-12.98-3.58-19.5-4.21-26.21-5.44-51.87-6.32-74.36-.34-10.95-.67-21.7-.99-32.24-.3-10.22-.7-20.12-1.16-29.22-.22-4.9-.43-9.74-.65-14.51-.12-4.62-.24-9.16-.35-13.64-.22-9.43-.43-18.54-.63-27.29-.71-35.57-.41-66.92,1.62-90.44,.41-5.8,1.05-11.28,1.54-15.97,.64-5.14,1.37-10.16,1.87-13.66,.86-5.34,1.32-8.19,1.32-8.19,6.8-42.52,46.85-71.5,89.46-64.72,42.61,6.77,71.63,46.74,64.83,89.26-.26,1.57-.56,3.12-.9,4.65l-.08,.33s-.63,2.81-1.82,8.09c-.34,1.63-.75,3.64-1.23,6.01-.52,3.1-1.18,6.52-1.76,10.77-2.51,16.6-5.18,42.89-7.02,76.5-.46,8.55-.94,17.46-1.44,26.67-.26,4.85-.53,9.78-.81,14.79-.43,4.86-.88,9.79-1.33,14.8-1.04,10.72-2.18,21.17-3.44,31.73-1.24,10.26-2.51,20.74-3.79,31.4-2.58,20.71-4.61,39.83-4.83,58.87-.14,4.8-.05,9.61,.05,14.49l.12,3.66,.06,1.84,.03,.92,.02,.46c-.12-.61,.25,1.69-.25-1.31l.03,.27,.26,2.13c.04,.3,0,.11-.02-.03l-.08-.37-.21-.74c-.22-.68-.18-.46-.25-.54-.06-.04-.12-.06-.14-.04-.76,.14,1.04,5.24,5.3,11.07,4.23,5.94,10.38,12.76,17.34,19.63,6.96,6.9,14.77,13.97,22.9,21.05,16.33,14.21,33.97,28.48,51.33,43.77,8.69,7.66,17.35,15.59,25.81,24.12,4.24,4.28,8.42,8.7,12.53,13.36,4.51,5.06,7.12,8.64,10.31,12.61,12.53,15.72,24.29,33.95,34.61,48.66,17.37,24.28,22.14,25.2,35.84,51.74"/>
        <path class="cls-17" d="M407.27,1004.93c-2.48,7.58-5.4,14.87-8.58,21.68-14.61,31.28-34.32,60.14-50.13,90.86-16.83,32.72-32.12,66.27-44.7,100.86-17.84,49.04-26.51,100.83-43.24,150.25-7.51,21.69-15.51,42.4-23.66,62.05-16.03,39.09-35.57,76.61-55.49,113.83-8.46,15.8-24.16,60.09-39.73,86.49-7.52,12.75-14.17,18.91-35.69,6.03-17.77-10.63-12.64-21.08-7.88-37.04,7.03-23.56,12.58-46.88,20.05-70.32,16.4-51.51,29.88-108.02,41.76-160.8,6.57-29.16,17.44-59.04,13.29-88.67-5.57-39.74,25.81-196.71,64.19-291.12,10.04-24.67,28.22-56.27,44.36-78.08,18.64-25.18,51.06-36.3,81.62-27.8,58.04,16.17,59.35,74.4,43.82,121.78Z"/>
        <path class="cls-10" d="M416.55,997.46c-2.48,7.58-7.67,22.35-10.85,29.15-14.61,31.28-34.27,66.38-50.07,97.1-16.83,32.72-38.33,60.02-50.92,94.61-17.84,49.04-20.35,100.83-37.08,150.25-7.51,21.69-18.31,41.46-23.66,62.05-8.89,34.26-35.57,76.61-55.49,113.83-8.46,15.8-3,15.69-18.58,42.09-7.52,12.75-14.17,18.91-35.69,6.03-17.77-10.63-30.92-15.48-30.92-15.48,0,0,8.31-24.04,15.78-47.48,16.4-51.51,29.88-108.02,41.76-160.8,6.57-29.16,17.44-59.04,13.29-88.67-5.57-39.74,14.34-200.27,52.72-294.68,10.04-24.67,39.69-52.71,55.83-74.52,18.64-25.18,51.06-36.3,81.62-27.8,58.04,16.17,67.78,66.93,52.26,114.31Z"/>
        <path class="cls-15" d="M556.14,1533.68c-2.31-4.97-3.17-9.05-10.22-11.39-6.42-2.14-12.93-1.79-17.11,3.69-1.65,2.16-3.3,7.92-3.15,10.58"/>
        <path class="cls-15" d="M100.81,1637.9c3.53-4.43,6.91-7.1,5.83-14.7-.97-6.93-4.31-12.78-11.29-14.13-2.76-.53-8.86,.59-11.24,1.96"/>
        <path class="cls-13" d="M295.34,949.9c25.53-6.05,48.54-11.2,74.84-7.81,16.63,2.15,32.25,5.56,48.2,5.63-4.15-21.15-10.78-28.12-40.39-32.06-42.52-5.66-85.15,7.66-127.69,8.3-19.66,.3-38.73,5.42-58.13,8.5-9.97,1.59-28.61-21.18-36.94-12.73-1.48,1.51-2.69,3.45-3.71,5.64,39.51,39.55,92.33,36.72,143.82,24.52Z"/>
        <path class="cls-14" d="M91.13,918.85c17.74-69.28-44.47-145.98-38.32-224.28,.98-12.47,7.16-41.81,9.05-54.18,5.37-35.45,29.06-73.03,59.39-92.67s76.29-17.96,96.23-10.34c12.29,4.69,21.72,15.62,24.16,28.5,1.32,6.97,1.02,20.66-.9,27.34-7.74,26.78-15.35,47.16-25.76,73.09-1.63,4.06-8.43,23.42-10.84,27.38-.25-.34-.54-.71-.8-1.06-.31,1.86-.62,3.74-.95,5.67-7.4,44.29-9.76,87.99-19.84,131.77-9.68,42.04-19.25,98.57-38.65,137.86-3.15,6.38-7,10.98-11.35,13.95-9.31,6.34-49.15-4.03-52.97-15.5-5.13-15.36,8.31-34.82,11.57-47.52Z"/>
        <path class="cls-11" d="M119.71,313.21c1.94-9.26-4.3-21.25-7.3-29.65-2.77-7.76-5.6-24.22-12.51-29.59-11.33-8.8-23.07,.52-27.43,10.18-11.05,24.46-14.94,39.43,9.88,53.13,12.42,6.87,32.91,17.09,37.36-4.07Z"/>
        <path class="cls-11" d="M472.28,259.42c-1.15-13.08-12.02-6.7-19.73-.02-12.01,10.42-17.93,25.74-24.17,39.88-4.95,11.2-12.38,20.71-18.75,30.95-.03,.54-.07,1.1-.21,1.69-3.09,13.66-1.66,27.13,.42,40.66,1.36-.23,2.85-.98,4.52-2.53,21.26-19.65,38.7-42.19,49.06-69.38,4.22-11.08,9.9-29.35,8.86-41.26Z"/>
        <path class="cls-14" d="M158.51,919.86c.95,1.62-1.08,54.53,.57,56.04,9.51,8.68,24.75,6.46,36.02,7.48,18.41,1.66,36.61-2.04,54.81-4.85,15.4-2.38,30.97-3.25,46.41-5.21,14.91-1.89,30.43-3.7,45.07,1.32,9.42,3.23,36.7-.73,46.66-5.97,11.86-6.24,.86-55.83-4.03-67.59-9.57-23.03-20.76-44.01-24.76-61.18-12.46-53.37,8.83-79.29,13.02-140.1,2.09-30.33,.61-54.51,2.35-84.87,.53-9.43,15.53-56.6-4.7-72.35-18.38-14.32-52.44-14.78-71.83-18.38-6.19-1.15-12.19-3.48-18.37-4.76-6.86-1.42-13.96-3.96-20.84-2.53-36.2,7.47-66.27,12.09-72.69,33.75-20.8,25.56-41.61,83.84-41.61,114.96,0,46.15,22.53,57.33,31.4,95.87,5.93,25.75,5.93,54.55,.59,80.74-2.86,14.03-6.68,32.38-15.27,52.51-3.52,8.24-6.83,18.27-2.82,25.14Z"/>
        <path class="cls-14" d="M397.82,973.54c-2.12-1.57-3.86-3.21-5.04-4.86-9.61-13.44-24.72-25.32-32.99-39.61-5.9-10.22-13.58-21.43-16.46-33.04-4.79-19.32-11.93-42.7-13.59-62.52-3.41-40.73,5.47-80.53,9.2-120.91,3.42-36.8,4.38-70.42,3.26-107.08-.84-27.76-3.29-53.69-18.18-77.4,23.62,2.56,55.65,4.79,74.32,16.84,24.41,15.75,6.31,62.93,5.67,72.35-2.1,30.36-.31,54.54-2.84,84.87-5.06,60.81-19.93,92.26-4.9,145.63,4.82,17.17,31.28,75.19,42.84,98.22,5.89,11.75,16.69,31.85,2.39,38.09-9.78,4.27-32.34-2.18-43.69-10.58Z"/>
        <path class="cls-13" d="M402.33,864.56c3.64,9.08,8.39,20.15,13.39,31.39-11,6.3-20.36,14.95-33.15,17.9-9.82,2.26-19.63,3.39-29.55,3.81-4.04-6.94-7.84-14.2-9.69-21.62-.71-2.85-1.48-5.84-2.27-8.85,21.27-5,41.46-13.23,61.27-22.62Z"/>
        <path class="cls-13" d="M222.62,740.44c47.58,1.43,96.23-18.21,96.94-18.45-42.21,6.58-70.22,7.16-107.14,6.58-19.38-.3-46.3-6.06-66.61-11.95,.87,1.47,1.73,2.92,2.63,4.36,20.16,16.42,51.08,18.77,74.17,19.46Z"/>
        <path class="cls-17" d="M263.44,17.63c-56.58,0-106.84,19.89-138.56,83.88-22.09,44.53-35.18,125.21-35.18,173.45,0,81.35,37.26,115.43,92,151.25,6.36,4.17,13.01,7.26,19.03,11.17,11.54,7.49,24.01,12.54,30.13,25.8,6.3,13.69,8.11,30.93,3.69,45.43-3.59,11.74-12.62,19-19.27,29.99-10.04,16.6-19.84,64.06,6.63,66.67,36.22,3.58,91.76-51.38,89.66-66.68-1.37-9.93-11.42-13.07-15.55-21.13-8.62-16.87-2.86-44.75,6.5-60.03,7.82-12.76,20.76-17.42,32.7-25.2,2.25-1.46,4.67-2.67,6.98-4.11,56.37-35.19,94.97-70.34,94.97-153.15,0-53.61-16.18-140.54-42.87-188.03-31.84-56.65-78.66-69.3-130.85-69.3Z"/>
        <path class="cls-12" d="M394.55,86.93c-31.63-56.65-78.13-69.3-129.99-69.3-56.19,0-106.11,19.89-137.63,83.88-21.93,44.53-34.94,125.21-34.94,173.45,0,14.59,1.27,27.58,3.55,39.41,6.62-14.79,19.25-44.03,30.8-56.56,5.99-6.51,4.91,7.37,12.87,3.76,8.98-6.66,19.48-23.65,30.05-28.17,17.52-7.5,38.71-5.89,57.44-6.44,22.21-.65,48.35-.86,68.64-10.39,29.63-13.92,36.21-21.56,58.14-37.1,13.55-9.6,24.51,.76,36.04,10.46,14.13,11.88,27.96,20.63,43.21,28.15-6.48-46.53-19.82-98.28-38.18-131.15Z"/>
        <path class="cls-13" d="M230.87,463.18c4.18,9.08,6.32,19.73,6.04,30.1,14.44,15,37.95,21.96,60.21,25.9-.38-.57-.78-1.11-1.1-1.72-8.62-16.87-2.86-44.75,6.5-60.03,1.2-1.95,2.54-3.67,3.96-5.28-9.81,4.98-33.8,10.24-49.95,8.27-12.16-1.49-24.17-4.07-34.61-8.96,3.59,3.17,6.7,6.88,8.95,11.73Z"/>
        <g>
          <path class="cls-3" d="M224.95,314.53c-9.32-.64-11.35,5.45-10.89,10.6,.71,8.11,7.45,7.78,12.15,7.81"/>
          <path class="cls-6" d="M181.13,345.11c0-6.38-15.37-11.56-34.34-11.56s-34.34,5.17-34.34,11.56,15.37,11.56,34.34,11.56,34.34-5.17,34.34-11.56Z"/>
          <path class="cls-6" d="M366.44,345.11c0-6.38-15.37-11.56-34.34-11.56s-34.34,5.17-34.34,11.56,15.37,11.56,34.34,11.56,34.34-5.17,34.34-11.56Z"/>
          <path class="cls-1" d="M258.13,380.03c.15,5.7-3.56,12.46-6.42,16.31-6.95,9.32-15.17,11.6-25.02,11.6-8.83,0-14.4-2.03-22.57-8.94-3.88-3.28-12.05-19.56-6.95-22.79,.14-.05,.24-.15,.42-.2,.28-.1,.59-.19,.94-.24,4.27-.48,9.3,2.56,13.46,3.62,4.61,1.16,9.71,2.32,14.4,2.08,6.46-.34,12.85-1.59,19.22-3.04,2.44-.58,7.85-4.2,10.69-2.75,.03,0,.07,.05,.1,.05v.05c.39,.2,.7,.49,.98,.92,.49,.78,.76,1.83,.76,3.33Z"/>
          <path class="cls-18" d="M256.29,375.64c-1.54,12.83-15.2,13.73-23.59,14.08-7.9,.34-16.18-.08-23.97-1.46-5.28-.94-9.82-5.75-11.14-12.32,.28-.09,.59-.18,.94-.22,4.27-.43,9.3,2.28,13.46,3.22,4.61,1.03,9.71,2.06,14.4,1.84,6.46-.3,12.85-1.41,19.22-2.7,2.44-.52,7.85-3.74,10.69-2.45Z"/>
          <path class="cls-4" d="M126.52,289.01s25.55-23.74,39.36-.85"/>
          <path class="cls-4" d="M339.25,289.01s-25.55-23.74-39.36-.85"/>
        </g>
        <path class="cls-11" d="M476.11,236.27c9.3-48.65,5.39-83.66-18.87-127.39-8.39-15.11-28.09-46.31-38.63-57.95-25.05-27.67-49.58-46.91-89.99-45.26-33.56-7.51-101.92-8.72-136.09,3.63-33.52,12.12-64.77,30.93-88.06,57.94-17.22,19.97-35.01,60.27-43.3,95.69-20.78,88.7-2.68,128.91,3.86,137.22,7.79-24.34,36.14-41.77,49.47-56.02,8.93-9.55,29.83-33.42,39.89-39.92-3.68,11.1-21.64,23.9-21.11,35.77,14.08-13.84,39.38-20.5,59.23-22.58,34.06-3.58,88.1-6.25,119.19-21.72,50.37-25.07,44.09-62.42,44.09-62.42,6.94,13.66,13.39,26.59,18.23,41.11,7.86,23.61,10.99,37.51,16.45,57.95,2.59,9.65,11.44,26.23,22.1,27.7,13.36,1.85,20.66-20.15,24.59-29.31,13.77-9.39,31.15-4.71,38.94,5.57Z"/>
        <path class="cls-2" d="M122.84,63.83C154.58,30.53,190.9,15.09,235.59,6.95c29.44-5.36,60.76-6,89-1.53,.17-.16,.32-.33,.5-.47-34.6-6.85-99.52-7.61-132.55,4.33-33.52,12.12-64.77,30.93-88.06,57.94-17.22,19.97-35.01,60.27-43.3,95.69-14.91,63.65-9.81,102.32-3.31,122.17-7.33-36.96-.96-81.74,8.53-116.45,10.69-39.05,28.28-75.26,56.45-104.81Z"/>
        <path class="cls-14" d="M402.27,541.29c4.14-.17,20.65,2.98,27.89,3.57,1.68,.14,20.78,6.39,21.8,8.05,1.03,1.71,8.12,4.22,9.02,5.82,3.43,6.11,10.64,6.11,14.87,14.34,4.17,8.21,20.23,22.57,25.07,32.65,9.64,20.18,19.22,33.06,30.13,58.8,11.01,25.93,14.77,86.2,16,115.11,1.16,27.06-44.61,51.8-65.16,69.59-12.77,11.06-27.96,21.81-42.93,29.51-26.33,13.56-46.78,21.89-68.71,28.58-5.79,1.72-18.99,7.55-24.83,9.07-11.27,2.92-15.89-13.53-19.5-22.13-2.35-5.61-8-15.51-5.9-22.19,4.22-13.42,17.81-16.67,24.24-19.18,19.77-7.69,39.66-13.88,60.89-27.18,11.43-7.16,11.64-9.96,19.67-20.88,5.73-7.8,.95-12.35-6.44-27.56-5.9-12.18-15.06-30.45-20.96-42.63-12.27-25.32-1.4-45.3-8.42-65.42-3.5-10.09-9.8-22.95-14.28-30.23-4.49-7.22-8.43-13.43-11.66-18.17-.76-1.12-1.67-2.57-2.19-3.23-.53-.72-1.02-1.4-1.49-2.02-1.01-1.35-1.37-2.08-2.69-3.65-2.15-2.66-3.3-4.07-3.3-4.07l-.5-.62c-13.42-16.62-10.83-40.97,5.79-54.4,16.62-13.42,30.33-12.05,30.33-12.05"/>
        <path class="cls-14" d="M407.18,699.63c24.45-.79,57.11-22.93,74.37-42.39-1.53-2.93-3.06-5.86-4.61-8.83-14.91-28.58-29.11-50.16-45.08-78.1-5.13-8.98-16.8-22.58-26.37-27.51-6.2-3.2-16.38-6.59-23.21-5.16-6,1.25-14.53,5.56-19.36,9.45-9.78,7.91-15.18,23.24-14.2,35.73,.95,12.06,8.04,24.19,14.2,34.02,7.12,11.38,14.83,20.83,21.42,32.51,6.17,10.93,10.15,25.93,16.02,37.03,2.31,4.38,4.55,8.82,6.81,13.24Z"/>
        <path class="cls-14" d="M155.89,852.82c6.44-26.19,9.3-57.95,2.15-83.71-10.7-38.54-31.52-54.97-31.52-101.11,0-31.12,25.1-89.4,50.2-114.96,3.71-10.39,14.03-16.84,28.53-21.58-16.65,24.71-41.96,58.13-49.31,87.01-10.12,39.76-19.52,73.31-1.84,109.08,28.35,57.31,41.87,176.15-8.28,233.46-4.84-1.81-9.08-3.85-12.05-6.11-1.99-1.5-3.51-3.06-4.65-4.69-4.85-6.86-.85-16.89,3.39-25.13,10.36-20.12,19.94-58.23,23.39-72.26Z"/>
        <g>
          <path class="cls-17" d="M104.84,1046.38c.33-1.21,.53-2.48,.64-3.75,.65-7.16,2.87-14.65,.47-22.24-.94-2.95-3.9-7-9.63-5.74-4.45-5.64-10.07-7.49-14.08-5.14-4.15-3.06-9.94-6.03-16.66-1.17-11.27-12.57-23.35,12.03-19.86,31.48,1.29,7.15,10.56,5.56,13-2.22-.01,3.65,1.66,9.88,5.85,10.42,7.43,.93,9.39-5.11,10.03-8.92-.64,3.8,.47,9.98,5.15,10.98,6.49,1.38,7.44-3.57,8.89-8.94,1.47,3.71,2.08,10.12,6.92,11.4,5.51,1.45,8.15-1.88,9.28-6.15Z"/>
          <path class="cls-17" d="M87.99,1040.76s.34-1.52,.87-3.81c.56-2.27,1.39-5.27,2.3-8.24,.79-2.95,1.61-5.86,2.37-8.04,.73-2.18,1.33-3.64,1.33-3.64l.09-.2c.14-.35,.55-.52,.91-.37,.3,.12,.47,.43,.42,.73,0,0-.2,1.54-.68,3.86-.47,2.32-1.23,5.42-2.11,8.45-.97,2.95-2.01,5.88-2.86,8.05-.89,2.16-1.48,3.6-1.48,3.6-.13,.32-.48,.46-.8,.33-.28-.11-.42-.43-.36-.72Z"/>
          <path class="cls-17" d="M73.98,1039.02s0-1.78,.18-4.44c.22-2.65,.9-6.22,1.59-9.76,.37-1.75,.92-3.45,1.35-5.07,.45-1.64,.88-3.07,1.46-4.39,1.13-2.61,2.03-4.16,2.03-4.16,.18-.31,.57-.41,.87-.23,.23,.13,.35,.39,.31,.64l-.04,.28s-.25,1.81-.84,4.23c-.34,1.17-.46,2.81-.89,4.38-.39,1.61-.7,3.34-1.19,5.03-.41,1.69-.82,3.39-1.2,4.97-.41,1.59-.93,3.03-1.2,4.35-.66,2.6-1.22,4.32-1.22,4.32l-.02,.05c-.11,.33-.45,.51-.78,.4-.26-.09-.43-.33-.42-.59Z"/>
          <path class="cls-17" d="M58.26,1038.03s-.12-1.78,.05-4.53c.17-2.76,.64-6.32,1.31-9.9,.71-3.56,1.58-7.09,2.65-9.65,.89-2.6,2.24-4.15,2.14-4.15,.16-.28,.52-.37,.81-.2,.28,.17,.37,.53,.2,.81,.07,.06-.64,1.56-1.22,4.18-.66,2.55-1.4,6.04-2.22,9.51-.72,3.48-1.5,7-2.01,9.6-.61,2.59-.85,4.41-.85,4.41-.02,.23-.25,.4-.48,.37-.2-.03-.36-.2-.37-.4v-.04Z"/>
        </g>
        <path class="cls-5" d="M308.19,866.93l56.49,.4s3.47,56.48,.47,69.35c-3,12.87-67.31,0-67.31,0l10.35-69.75Z"/>
      </g>
      <path class="cls-9" d="M159.64,411.86s-43.71,4.46-66.01,27.51c-19.65,20.31-50.02,104.29,2.65,130.09,38.13,18.67,96.46,36.41,140.66,36.41,88.15,0,170.57-35.67,187.68-67.11,35.1-64.49-53.08-127.13-53.08-127.13-88.85,45.95-117.24,31.85-142.13,24.34-45.45-13.71-69.76-24.12-69.76-24.12Z"/>
      <path class="cls-9" d="M371.54,411.63s199.47,39.82,240.17,97.12c-17.7,19.37-173.04,13.67-232.45,50.33s-7.72-147.44-7.72-147.44Z"/>
      <polygon class="cls-9" points="573.39 420.11 325.09 455.65 398.35 544.96 573.39 420.11"/>
      <path class="cls-7" d="M368.39,415.15c12.5,12.82,23.62,26.92,33.15,42.08,4.8,7.64,9.27,15.53,13.14,23.69s6.96,17.09,8.09,26.26c1.33,10.81,.67,21.73,.01,32.57-.19,3.21,4.81,3.2,5,0,.59-9.82,1.18-19.69,.31-29.5-.87-9.81-3.45-19.08-7.38-28.09-3.68-8.45-8.19-16.57-12.98-24.43-4.73-7.76-9.87-15.27-15.39-22.49-6.33-8.27-13.13-16.16-20.4-23.62-2.25-2.31-5.78,1.23-3.54,3.54h0Z"/>
    </g>
  </g>
</svg>